HIERARCHY
ROOT Hips
{
	OFFSET 0.000000 88.474243 0.000000
	CHANNELS 6 Xposition Yposition Zposition Zrotation Yrotation Xrotation 
	JOINT Hips_Spine
	{
		OFFSET 0.000000 0.000000 0.000000
		CHANNELS 3 Zrotation Yrotation Xrotation
		JOINT Spine
		{
			OFFSET 0.005100 8.711998 -0.691000
			CHANNELS 3 Zrotation Yrotation Xrotation
			JOINT Spine1
			{
				OFFSET -0.009200 8.660301 -1.275000
				CHANNELS 3 Zrotation Yrotation Xrotation
				JOINT Spine2
				{
					OFFSET 0.006300 9.852501 -1.857000
					CHANNELS 3 Zrotation Yrotation Xrotation
					JOINT Spine2_Neck
					{
						OFFSET 0.000000 0.000000 0.000000
						CHANNELS 3 Zrotation Yrotation Xrotation
						JOINT Neck
						{
							OFFSET 0.016300 11.420799 -0.263300
							CHANNELS 3 Zrotation Yrotation Xrotation
							End Site #name: Head
							{
								OFFSET -0.019200 9.262405 2.362500
							}
						}
					}
					JOINT Spine2_LeftShoulder
					{
						OFFSET 0.000000 0.000000 0.000000
						CHANNELS 3 Zrotation Yrotation Xrotation
						JOINT LeftShoulder
						{
							OFFSET 5.616900 6.732201 -0.345700
							CHANNELS 3 Zrotation Yrotation Xrotation
							JOINT LeftArm
							{
								OFFSET 10.664888 -0.183372 -2.440700
								CHANNELS 3 Zrotation Yrotation Xrotation
								JOINT LeftForeArm
								{
									OFFSET 27.459126 0.000000 0.000000
									CHANNELS 3 Zrotation Yrotation Xrotation
									End Site #name: LeftHand
									{
										OFFSET 21.306858 0.000000 0.000000
									}
								}
							}
						}
					}
					JOINT Spine2_RightShoulder
					{
						OFFSET 0.000000 0.000000 0.000000
						CHANNELS 3 Zrotation Yrotation Xrotation
						JOINT RightShoulder
						{
							OFFSET -5.580300 6.737503 -0.344400
							CHANNELS 3 Zrotation Yrotation Xrotation
							JOINT RightArm
							{
								OFFSET -10.679335 -0.188484 -2.383900
								CHANNELS 3 Zrotation Yrotation Xrotation
								JOINT RightForeArm
								{
									OFFSET -27.503529 0.000000 0.000000
									CHANNELS 3 Zrotation Yrotation Xrotation
									End Site #name: RightHand
									{
										OFFSET -21.306808 0.000000 0.000000
									}
								}
							}
						}
					}
				}
			}
		}
	}
	JOINT Hips_LeftUpLeg
	{
		OFFSET 0.000000 0.000000 0.000000
		CHANNELS 3 Zrotation Yrotation Xrotation
		JOINT LeftUpLeg
		{
			OFFSET 6.857700 -6.739601 0.312100
			CHANNELS 3 Zrotation Yrotation Xrotation
			JOINT LeftLeg
			{
				OFFSET -0.367590 -34.731552 -4.572400
				CHANNELS 3 Zrotation Yrotation Xrotation
				End Site #name: LeftFoot
				{
					OFFSET 0.367590 -34.656704 -6.067400
				}
			}
		}
	}
	JOINT Hips_RightUpLeg
	{
		OFFSET 0.000000 0.000000 0.000000
		CHANNELS 3 Zrotation Yrotation Xrotation
		JOINT RightUpLeg
		{
			OFFSET -6.876100 -6.733299 0.301000
			CHANNELS 3 Zrotation Yrotation Xrotation
			JOINT RightLeg
			{
				OFFSET 0.347353 -34.795158 -4.515900
				CHANNELS 3 Zrotation Yrotation Xrotation
				End Site #name: RightFoot
				{
					OFFSET -0.347353 -34.589367 -6.070300
				}
			}
		}
	}
}
MOTION
Frames: 6
Frame Time: 0.041667
1.146863 0.358412 1.042927 1.599638 12.215045 -6.991455 -0.000000 0.000000 -0.000000 -2.413620 -1.330529 -4.029597 2.392042 -2.039824 -5.383658 0.000000 0.000000 0.000000 2.831361 -1.555782 -5.381131 4.459442 -3.464540 -6.592912 1.691005 -1.777742 -6.036548 -19.597444 0.384091 9.032044 -54.791199 7.917109 1.832432 -0.737540 -19.862083 8.511917 1.836501 -1.847776 -2.972056 6.447203 6.670630 1.644691 64.215165 0.674910 -7.339562 0.221338 48.518089 -0.745430 0.000000 0.000000 -0.000000 -10.043661 25.462086 0.361135 -2.997019 -0.418176 19.137624 0.000000 0.000000 0.000000 -6.712152 6.330846 -19.866747 6.601040 2.655648 16.499668 
0.891288 0.361868 1.153865 1.169620 13.219069 -7.273896 -0.000000 0.000000 -0.000000 -1.515360 -1.365116 -4.728964 2.625556 -2.049348 -5.313951 0.000000 0.000000 0.000000 3.015724 -1.481627 -5.315381 4.412287 -3.479864 -6.345587 1.943888 -1.718410 -5.905996 -19.037868 0.385734 9.129692 -55.709097 8.783380 1.149247 -0.799372 -20.511864 8.459814 2.054647 -1.794632 -2.970964 6.820801 6.803554 1.717716 63.894811 0.393419 -7.307833 0.229869 48.764244 -0.745371 0.000000 -0.000000 -0.000000 -9.054106 25.937301 0.949570 -3.238126 -0.745281 18.924676 0.000000 0.000000 0.000000 -5.975607 6.652506 -20.102329 6.506001 1.671411 16.550445 
0.659522 0.357688 1.260396 0.751830 14.315649 -7.557798 -0.000000 0.000000 -0.000000 -0.595922 -1.317754 -5.298662 2.870623 -2.047310 -5.214073 0.000000 0.000000 0.000000 3.198225 -1.407171 -5.231980 4.398036 -3.553337 -5.985491 2.205267 -1.657940 -5.744957 -18.489944 0.322653 9.190396 -56.614868 9.607787 0.496000 -0.857690 -21.186881 8.390088 2.276559 -1.743526 -2.955421 7.214158 6.945820 1.793532 63.666984 0.207216 -7.205769 0.242586 49.064555 -0.744392 0.000000 -0.000000 -0.000000 -8.103059 26.346573 1.569080 -3.519508 -1.043755 18.754006 0.000000 0.000000 0.000000 -5.259003 6.957414 -20.253336 6.380607 0.668441 16.625426 
0.459061 0.349858 1.357998 0.416599 15.182384 -7.743261 -0.000000 -0.000000 0.000000 0.061802 -1.269454 -5.878035 3.101016 -2.045252 -5.105746 0.000000 0.000000 0.000000 3.365727 -1.334464 -5.158639 4.383194 -3.653173 -5.579559 2.448796 -1.603679 -5.588084 -17.949424 0.225943 9.220198 -57.437335 10.357508 -0.124700 -0.905316 -21.733357 8.299160 2.481741 -1.688030 -2.932281 7.610971 7.084732 1.864416 63.505517 0.059980 -7.075865 0.259948 49.417392 -0.739647 0.000000 -0.000000 -0.000000 -7.229509 26.606079 2.223860 -3.882686 -1.281413 18.592205 0.000000 -0.000000 0.000000 -4.555275 7.306013 -20.421394 6.231028 -0.293084 16.743104 
0.299481 0.341553 1.446464 0.150036 15.634148 -7.915230 -0.000000 -0.000000 0.000000 0.624033 -1.220467 -6.322679 3.297774 -2.041725 -5.008133 0.000000 0.000000 0.000000 3.505359 -1.265937 -5.084841 4.381253 -3.788625 -5.121290 2.655766 -1.555281 -5.442789 -17.437954 0.122831 9.225998 -58.189931 10.998328 -0.720598 -0.960698 -22.248519 8.220976 2.661105 -1.637902 -2.910761 7.986829 7.213136 1.924547 63.329832 -0.077664 -6.932553 0.282322 49.787010 -0.734929 0.000000 -0.000000 -0.000000 -6.360628 26.793843 2.932448 -4.305948 -1.472050 18.466241 0.000000 -0.000000 0.000000 -3.910572 7.715769 -20.569458 6.102980 -1.117796 16.962186 
0.187700 0.334976 1.527133 -0.020132 15.473707 -8.056210 -0.000000 -0.000000 0.000000 1.125214 -1.170093 -6.506818 3.453146 -2.044123 -4.918022 0.000000 0.000000 0.000000 3.616276 -1.211633 -5.021461 4.341277 -3.927504 -4.627588 2.823864 -1.512917 -5.311989 -16.930010 -0.007879 9.192350 -58.906549 11.559494 -1.241017 -1.017602 -22.720035 8.149201 2.809188 -1.596266 -2.892659 8.338903 7.332471 1.978638 63.144561 -0.203706 -6.781100 0.307585 50.199340 -0.729764 0.000000 -0.000000 -0.000000 -5.555120 26.838896 3.592691 -4.691358 -1.655986 18.352578 0.000000 -0.000000 0.000000 -3.354253 8.158502 -20.764023 6.021476 -1.751021 17.420555 
